<svg id="visual" viewBox="0 0 960 540" width="960" height="540" xmlns="http://www.w3.org/2000/svg" xmlns:xlink="http://www.w3.org/1999/xlink" version="1.1"><rect x="0" y="0" width="960" height="540" fill="#001220"></rect><path d="M0 392L22.8 379.3C45.7 366.7 91.3 341.3 137 340.5C182.7 339.7 228.3 363.3 274 370.2C319.7 377 365.3 367 411.2 369.8C457 372.7 503 388.3 548.8 388C594.7 387.7 640.3 371.3 686 368.7C731.7 366 777.3 377 823 374.3C868.7 371.7 914.3 355.3 937.2 347.2L960 339L960 541L937.2 541C914.3 541 868.7 541 823 541C777.3 541 731.7 541 686 541C640.3 541 594.7 541 548.8 541C503 541 457 541 411.2 541C365.3 541 319.7 541 274 541C228.3 541 182.7 541 137 541C91.3 541 45.7 541 22.8 541L0 541Z" fill="#fa7268"></path><path d="M0 420L22.8 414.3C45.7 408.7 91.3 397.3 137 398.8C182.7 400.3 228.3 414.7 274 421.2C319.7 427.7 365.3 426.3 411.2 416.8C457 407.3 503 389.7 548.8 389.8C594.7 390 640.3 408 686 410.8C731.7 413.7 777.3 401.3 823 392C868.7 382.7 914.3 376.3 937.2 373.2L960 370L960 541L937.2 541C914.3 541 868.7 541 823 541C777.3 541 731.7 541 686 541C640.3 541 594.7 541 548.8 541C503 541 457 541 411.2 541C365.3 541 319.7 541 274 541C228.3 541 182.7 541 137 541C91.3 541 45.7 541 22.8 541L0 541Z" fill="#ef5f67"></path><path d="M0 458L22.8 451.7C45.7 445.3 91.3 432.7 137 423.7C182.7 414.7 228.3 409.3 274 409.3C319.7 409.3 365.3 414.7 411.2 421.3C457 428 503 436 548.8 438.7C594.7 441.3 640.3 438.7 686 436.7C731.7 434.7 777.3 433.3 823 431.7C868.7 430 914.3 428 937.2 427L960 426L960 541L937.2 541C914.3 541 868.7 541 823 541C777.3 541 731.7 541 686 541C640.3 541 594.7 541 548.8 541C503 541 457 541 411.2 541C365.3 541 319.7 541 274 541C228.3 541 182.7 541 137 541C91.3 541 45.7 541 22.8 541L0 541Z" fill="#e34c67"></path><path d="M0 467L22.8 470.3C45.7 473.7 91.3 480.3 137 479.2C182.7 478 228.3 469 274 468.8C319.7 468.7 365.3 477.3 411.2 480.7C457 484 503 482 548.8 474.2C594.7 466.3 640.3 452.7 686 447.2C731.7 441.7 777.3 444.3 823 446.3C868.7 448.3 914.3 449.7 937.2 450.3L960 451L960 541L937.2 541C914.3 541 868.7 541 823 541C777.3 541 731.7 541 686 541C640.3 541 594.7 541 548.8 541C503 541 457 541 411.2 541C365.3 541 319.7 541 274 541C228.3 541 182.7 541 137 541C91.3 541 45.7 541 22.8 541L0 541Z" fill="#d53867"></path><path d="M0 489L22.8 486.7C45.7 484.3 91.3 479.7 137 477.3C182.7 475 228.3 475 274 477.7C319.7 480.3 365.3 485.7 411.2 488C457 490.3 503 489.7 548.8 488.2C594.7 486.7 640.3 484.3 686 487.5C731.7 490.7 777.3 499.3 823 501.8C868.7 504.3 914.3 500.7 937.2 498.8L960 497L960 541L937.2 541C914.3 541 868.7 541 823 541C777.3 541 731.7 541 686 541C640.3 541 594.7 541 548.8 541C503 541 457 541 411.2 541C365.3 541 319.7 541 274 541C228.3 541 182.7 541 137 541C91.3 541 45.7 541 22.8 541L0 541Z" fill="#c62368"></path></svg>